<?xml version="1.0" encoding="iso-8859-1"?>
<!-- Generator: Adobe Illustrator 19.0.0, SVG Export Plug-In . SVG Version: 6.00 Build 0)  -->
<svg version="1.1" id="Layer_1" xmlns="http://www.w3.org/2000/svg" xmlns:xlink="http://www.w3.org/1999/xlink" x="0px" y="0px"
	 viewBox="0 0 500 500" style="enable-background:new 0 0 500 500;" xml:space="preserve">
<g>
	<path style="fill:#2D527C;" d="M406.387,445.871H93.211C66.629,445.871,45,424.243,45,397.657V182.59
		c0-26.586,21.629-48.215,48.211-48.215h313.176c26.586,0,48.211,21.629,48.211,48.215v215.067
		C454.602,424.243,432.973,445.871,406.387,445.871L406.387,445.871z M93.211,156.051c-14.633,0-26.535,11.906-26.535,26.535
		v215.071c0,14.632,11.906,26.535,26.535,26.535h313.176c14.633,0,26.535-11.903,26.535-26.535V182.59
		c0-14.633-11.902-26.535-26.535-26.535H93.211V156.051z M93.211,156.051"/>
	<path style="fill:#CEE8FA;" d="M148.426,203.055v-49.273c0-4.328-3.508-7.836-7.836-7.836H94
		c-20.535,0-37.188,16.648-37.188,37.183v19.93c0,4.328,3.512,7.836,7.84,7.836h75.938
		C144.918,210.891,148.426,207.383,148.426,203.055L148.426,203.055z M148.426,203.055"/>
	<path style="fill:#2D527C;" d="M140.59,221.731H64.652c-10.297,0-18.675-8.375-18.675-18.676v-19.926
		c0-26.48,21.543-48.023,48.023-48.023h46.59c10.301,0,18.676,8.375,18.676,18.676v49.273
		C159.266,213.356,150.887,221.731,140.59,221.731L140.59,221.731z M67.652,200.055h69.938v-43.273H94
		c-14.527,0-26.348,11.82-26.348,26.347V200.055z M67.652,200.055"/>
	<path style="fill:#CEE8FA;" d="M359.008,210.891h75.941c4.328,0,7.836-3.508,7.836-7.836v-19.926
		c0-20.535-16.648-37.183-37.187-37.183h-46.586c-4.328,0-7.84,3.508-7.84,7.836v49.273
		C351.172,207.383,354.68,210.891,359.008,210.891L359.008,210.891z M359.008,210.891"/>
	<path style="fill:#2D527C;" d="M434.949,221.731h-75.941c-10.297,0-18.672-8.375-18.672-18.676v-49.273
		c0-10.297,8.375-18.676,18.672-18.676h46.59c26.48,0,48.023,21.543,48.023,48.023v19.93
		C453.625,213.356,445.246,221.731,434.949,221.731L434.949,221.731z M362.012,200.055h69.933v-16.926
		c0-14.527-11.816-26.347-26.347-26.347h-43.586V200.055z M362.012,200.055"/>
	<path style="fill:#CEE8FA;" d="M351.172,377.188v49.277c0,4.328,3.508,7.836,7.84,7.836h46.586
		c20.539,0,37.187-16.648,37.187-37.187v-19.926c0-4.328-3.508-7.836-7.836-7.836h-75.941
		C354.68,369.352,351.172,372.86,351.172,377.188L351.172,377.188z M351.172,377.188"/>
	<path style="fill:#2D527C;" d="M405.598,445.141h-46.59c-10.297,0-18.672-8.379-18.672-18.676v-49.273
		c0-10.301,8.375-18.676,18.672-18.676h75.941c10.297,0,18.672,8.375,18.672,18.676v19.926
		C453.625,423.594,432.078,445.141,405.598,445.141L405.598,445.141z M362.012,423.461h43.586c14.531,0,26.347-11.816,26.347-26.347
		v-16.922h-69.933V423.461z M362.012,423.461"/>
	<path style="fill:#CEE8FA;" d="M140.59,369.352H64.652c-4.328,0-7.836,3.508-7.836,7.836v19.926
		c0,20.539,16.649,37.187,37.184,37.187h46.59c4.328,0,7.836-3.508,7.836-7.836v-49.277
		C148.426,372.86,144.918,369.352,140.59,369.352L140.59,369.352z M140.59,369.352"/>
	<path style="fill:#2D527C;" d="M140.59,445.141H94c-26.48,0-48.023-21.543-48.023-48.027v-19.926
		c0-10.297,8.378-18.672,18.675-18.672h75.938c10.297,0,18.676,8.375,18.676,18.672v49.277
		C159.266,436.762,150.887,445.141,140.59,445.141L140.59,445.141z M67.652,380.192v16.922c0,14.527,11.821,26.347,26.348,26.347
		h43.59v-43.269H67.652z M67.652,380.192"/>
	<path style="fill:#2D527C;" d="M187.367,153.629c-5.988,0-10.84-4.851-10.84-10.836V90.579c0-19.618,15.961-35.579,35.575-35.579
		h75.394c19.613,0,35.574,15.961,35.574,35.579v11.593c0,5.985-4.851,10.84-10.84,10.84c-5.984,0-10.835-4.855-10.835-10.84V90.579
		c0-7.668-6.235-13.903-13.899-13.903h-75.394c-7.664,0-13.899,6.235-13.899,13.903v52.214
		C198.203,148.778,193.352,153.629,187.367,153.629L187.367,153.629z M187.367,153.629"/>
	<path style="fill:#2D527C;" d="M244.676,353.801c-21.574-0.715-39.192-11.863-39.192-23.371c0-6.113,5.395-15.101,12.223-15.101
		c7.555,0,13.664,10.605,26.969,12.945v-29.125c-16.539-6.293-35.957-14.024-35.957-37.035c0-22.832,16.902-33.801,35.957-36.5
		v-5.032c0-2.519,2.879-4.855,6.832-4.855c3.418,0,6.832,2.336,6.832,4.855v4.493c11.148,0.359,32.183,3.234,32.183,15.64
		c0,4.856-3.238,14.746-11.148,14.746c-5.934,0-9.348-5.757-21.035-6.656v26.25c16.359,6.113,35.418,14.563,35.418,38.836
		c0,22.293-14.383,35.773-35.418,39.191v5.215c0,2.516-3.414,4.856-6.832,4.856c-3.957,0-6.832-2.34-6.832-4.856V353.801z
		 M246.477,270.743v-21.395c-8.09,1.617-11.508,5.754-11.508,10.07C234.969,264.629,239.645,267.864,246.477,270.743
		L246.477,270.743z M256.543,304v24.094c6.113-1.437,10.965-4.855,10.965-11.328C267.508,310.836,263.016,307.059,256.543,304
		L256.543,304z M256.543,304"/>
</g>
</svg>
