<?xml version="1.0" encoding="iso-8859-1"?>
<!-- Generator: Adobe Illustrator 19.0.0, SVG Export Plug-In . SVG Version: 6.00 Build 0)  -->
<svg version="1.1" id="Layer_1" xmlns="http://www.w3.org/2000/svg" xmlns:xlink="http://www.w3.org/1999/xlink" x="0px" y="0px"
	 viewBox="0 0 500 500" style="enable-background:new 0 0 500 500;" xml:space="preserve">
<g>
	<path style="fill:#CEE8FA;" d="M164.02,441.582v-24.883c0-47.219,38.277-85.492,85.496-85.492
		c47.218,0,85.492,38.277,85.492,85.492v25.856"/>
	<path style="fill:#2D527C;" d="M335.008,454.602c-6.649,0-12.047-5.395-12.047-12.047v-25.856c0-40.5-32.949-73.449-73.449-73.449
		s-73.446,32.949-73.446,73.449v24.883c0,6.652-5.394,12.047-12.046,12.047c-6.657,0-12.051-5.395-12.051-12.047v-24.883
		c0-53.785,43.758-97.543,97.543-97.543s97.543,43.758,97.543,97.543v25.856C347.059,449.207,341.664,454.602,335.008,454.602
		L335.008,454.602z M335.008,454.602"/>
	<path style="fill:#CEE8FA;" d="M314.074,265.941c0,35.657-28.906,64.563-64.558,64.563c-35.657,0-64.563-28.906-64.563-64.563
		c0-35.652,28.906-64.558,64.563-64.558C285.168,201.383,314.074,230.289,314.074,265.941L314.074,265.941z M314.074,265.941"/>
	<path style="fill:#2D527C;" d="M249.516,342.547c-42.243,0-76.61-34.363-76.61-76.606c0-42.242,34.367-76.605,76.61-76.605
		c42.238,0,76.605,34.363,76.605,76.605C326.121,308.184,291.754,342.547,249.516,342.547L249.516,342.547z M249.516,213.43
		c-28.957,0-52.512,23.558-52.512,52.511c0,28.957,23.555,52.512,52.512,52.512c28.953,0,52.511-23.558,52.511-52.512
		C302.027,236.988,278.469,213.43,249.516,213.43L249.516,213.43z M249.516,213.43"/>
	<path style="fill:#2D527C;" d="M335.008,454.602H121.812C91.59,454.602,67,430.012,67,399.785V99.812C67,69.59,91.59,45,121.812,45
		h255.403c30.223,0,54.812,24.59,54.812,54.812v287.926c0,6.653-5.394,12.047-12.047,12.047c-6.652,0-12.046-5.394-12.046-12.047
		V99.812c0-16.937-13.782-30.718-30.719-30.718H121.812c-16.937,0-30.718,13.781-30.718,30.718v299.973
		c0,16.942,13.781,30.723,30.718,30.723h213.196c6.652,0,12.051,5.394,12.051,12.047
		C347.059,449.207,341.664,454.602,335.008,454.602L335.008,454.602z M335.008,454.602"/>
	<path style="fill:#2D527C;" d="M146.512,161.855H79.047c-6.652,0-12.047-5.394-12.047-12.046V99.812C67,69.59,91.59,45,121.812,45
		h49.997c6.656,0,12.046,5.395,12.046,12.047v67.465C183.855,145.105,167.102,161.855,146.512,161.855L146.512,161.855z
		 M91.094,137.762h55.418c7.304,0,13.25-5.946,13.25-13.25V69.094h-37.95c-16.937,0-30.718,13.781-30.718,30.718V137.762z
		 M91.094,137.762"/>
	<path style="fill:#2D527C;" d="M282.645,153.426h-66.258c-6.657,0-12.051-5.395-12.051-12.047c0-6.652,5.394-12.047,12.051-12.047
		h66.258c6.652,0,12.046,5.395,12.046,12.047C294.691,148.031,289.297,153.426,282.645,153.426L282.645,153.426z M282.645,153.426"
		/>
</g>
</svg>
