<?xml version="1.0" encoding="iso-8859-1"?>
<!-- Generator: Adobe Illustrator 19.0.0, SVG Export Plug-In . SVG Version: 6.00 Build 0)  -->
<svg version="1.1" id="Layer_1" xmlns="http://www.w3.org/2000/svg" xmlns:xlink="http://www.w3.org/1999/xlink" x="0px" y="0px"
	 viewBox="0 0 500 500" style="enable-background:new 0 0 500 500;" xml:space="preserve">
<g>
	<defs>
		<rect id="SVGID_1_" x="105" y="45" width="289.92" height="410.88"/>
	</defs>
	<clipPath id="SVGID_2_">
		<use xlink:href="#SVGID_1_"  style="overflow:visible;"/>
	</clipPath>
	<path style="clip-path:url(#SVGID_2_);fill:#2D527C;" d="M322.332,405.031H248.48c-6.25,0-11.312-5.066-11.312-11.316
		c0-6.246,5.062-11.312,11.312-11.312h73.852c6.246,0,11.313,5.066,11.313,11.312C333.645,399.965,328.578,405.031,322.332,405.031
		L322.332,405.031z M322.332,405.031"/>
	<path style="clip-path:url(#SVGID_2_);fill:#2D527C;" d="M176.914,405.031c-5.598,0-10.461-4.152-11.207-9.851l-20.191-154.699
		c-9.895-64.672,14.871-129.883,64.652-170.219c18.469-14.961,33.394-23.203,34.02-23.547c3.417-1.875,7.558-1.859,10.964,0.047
		c0.668,0.371,16.594,9.34,35.91,25.418c48.426,40.308,72.418,104.949,62.618,168.687c-0.95,6.176-6.735,10.414-12.903,9.465
		c-6.175-0.949-10.414-6.726-9.461-12.902c8.602-55.942-12.371-112.598-54.726-147.856c-11.145-9.277-21.137-16.019-27.008-19.738
		c-5.555,3.465-14.777,9.59-25.168,18.008c-43.59,35.316-65.242,92.539-56.512,149.328c0.016,0.082,0.028,0.168,0.039,0.254
		l20.204,154.828c0.812,6.195-3.559,11.875-9.754,12.684C177.895,405,177.402,405.031,176.914,405.031L176.914,405.031z
		 M176.914,405.031"/>
</g>
<path style="fill:#CEE8FA;" d="M176.93,393.715l-12.875-98.644l-27.989,28.648c-12.664,12.957-19.75,30.355-19.75,48.473v61.125
	l60.797-39.602H176.93z M176.93,393.715"/>
<path style="fill:#2D527C;" d="M116.312,444.629c-1.851,0-3.703-0.453-5.39-1.367c-3.649-1.977-5.922-5.797-5.922-9.945v-61.125
	c0-21.196,8.156-41.219,22.969-56.379l27.992-28.649c3.027-3.101,7.562-4.199,11.672-2.828c4.113,1.371,7.078,4.973,7.64,9.27
	l12.614,96.652c0.023,0.078,0.047,0.156,0.07,0.238c1.426,4.801-0.473,9.969-4.672,12.7l-60.797,39.597
	C120.617,444.016,118.469,444.629,116.312,444.629L116.312,444.629z M155.852,319.656l-11.696,11.969
	c-10.656,10.91-16.527,25.317-16.527,40.567v40.25l37.172-24.207L155.852,319.656z M155.852,319.656"/>
<path style="fill:#CEE8FA;" d="M363.16,323.719l-27.961-28.621l-12.867,98.617h-0.223l60.801,39.602v-61.125
	C382.91,354.074,375.82,336.676,363.16,323.719L363.16,323.719z M363.16,323.719"/>
<path style="fill:#2D527C;" d="M382.91,444.629c-2.156,0-4.305-0.613-6.176-1.832l-60.8-39.601c-4.196-2.731-6.098-7.899-4.668-12.7
	c0.039-0.14,0.082-0.281,0.132-0.418l12.579-96.445c0.562-4.297,3.527-7.895,7.64-9.266c4.113-1.375,8.645-0.277,11.672,2.825
	l27.961,28.621c14.816,15.16,22.973,35.183,22.973,56.379v61.125c0,4.148-2.274,7.968-5.922,9.945
	C386.613,444.176,384.758,444.629,382.91,444.629L382.91,444.629z M334.457,388.254l37.137,24.188v-40.25
	c0-15.25-5.867-29.661-16.528-40.567l-11.664-11.941L334.457,388.254z M334.457,388.254"/>
<path style="fill:#CEE8FA;" d="M249.609,443.606l-31.816-49.891l31.816-49.887l31.821,49.887L249.609,443.606z M249.609,443.606"/>
<path style="fill:#2D527C;" d="M249.609,454.918c-3.863,0-7.461-1.969-9.539-5.23l-31.816-49.887c-2.367-3.711-2.367-8.457,0-12.168
	l31.816-49.891c2.078-3.257,5.676-5.23,9.539-5.23c3.868,0,7.465,1.973,9.543,5.23l31.817,49.891c2.367,3.711,2.367,8.457,0,12.168
	l-31.817,49.887C257.074,452.949,253.477,454.918,249.609,454.918L249.609,454.918z M231.211,393.715l18.398,28.852l18.403-28.852
	l-18.403-28.848L231.211,393.715z M231.211,393.715"/>
<path style="fill:#CEE8FA;" d="M287.328,238.336c0,20.824-16.887,37.711-37.711,37.711c-20.828,0-37.711-16.887-37.711-37.711
	c0-20.828,16.883-37.715,37.711-37.715C270.441,200.621,287.328,217.508,287.328,238.336L287.328,238.336z M287.328,238.336"/>
<path style="fill:#2D527C;" d="M249.609,287.363c-27.035,0-49.027-21.996-49.027-49.031s21.992-49.031,49.027-49.031
	c27.036,0,49.032,21.996,49.032,49.031S276.645,287.363,249.609,287.363L249.609,287.363z M249.609,211.934
	c-14.554,0-26.398,11.84-26.398,26.398c0,14.559,11.844,26.399,26.398,26.399c14.559,0,26.403-11.844,26.403-26.399
	C276.012,223.774,264.168,211.934,249.609,211.934L249.609,211.934z M249.609,211.934"/>
<path style="fill:#2D527C;" d="M249.609,159.129h-79.203c-6.246,0-11.312-5.062-11.312-11.312c0-6.25,5.066-11.317,11.312-11.317
	h79.203c6.25,0,11.317,5.067,11.317,11.317C260.926,154.067,255.859,159.129,249.609,159.129L249.609,159.129z M249.609,159.129"/>
<path style="fill:#2D527C;" d="M327.82,159.129h-34.648c-6.246,0-11.313-5.062-11.313-11.312c0-6.25,5.067-11.317,11.313-11.317
	h34.648c6.25,0,11.317,5.067,11.317,11.317C339.137,154.067,334.07,159.129,327.82,159.129L327.82,159.129z M327.82,159.129"/>
</svg>
